<svg xmlns="http://www.w3.org/2000/svg" width="312" height="312" viewBox="0 0 312 312" fill="none"><path d="M302.204 167.634C299.977 195.623 289.763 222.385 272.773 244.74C255.783 267.095 232.735 284.103 206.363 293.742C179.992 303.383 151.408 305.251 124.007 299.125C96.6057 292.997 71.5391 279.134 51.7851 259.18C32.0311 239.228 18.4201 214.022 12.5692 186.561C6.71826 159.1 8.87332 130.536 18.7784 104.263C28.6835 77.9905 45.9221 55.1134 68.4464 38.3497C90.9706 21.586 117.833 11.6403 145.844 9.69434" stroke="url(#paint0_linear_968_4735)" stroke-width="17.3333" stroke-linecap="round" stroke-linejoin="round"></path><path d="M218.962 180.593C214.888 191.081 208.263 200.387 199.688 207.67C191.113 214.954 180.858 219.985 169.85 222.309C158.842 224.633 147.428 224.177 136.641 220.981C125.853 217.784 116.033 211.95 108.067 204.005C100.101 196.06 94.2414 186.254 91.0179 175.475C87.7941 164.696 87.3081 153.283 89.6036 142.269C91.8994 131.255 96.9043 120.987 104.166 112.393C111.427 103.799 120.716 97.151 131.193 93.0496" stroke="url(#paint1_linear_968_4735)" stroke-width="17.3333" stroke-linecap="round" stroke-linejoin="round"></path><path fill-rule="evenodd" clip-rule="evenodd" d="M254.666 7.24019C253.909 4.21106 251.581 1.82343 248.572 0.989967C245.563 0.156505 242.338 1.00606 240.13 3.2139L195.004 48.3396C192.852 50.4923 191.986 53.6165 192.725 56.5699L202.815 96.9299L149.872 149.872C146.488 153.257 146.488 158.744 149.872 162.129C153.257 165.513 158.744 165.513 162.129 162.129L215.067 109.19L255.438 119.283C258.391 120.021 261.515 119.156 263.668 117.003L308.794 71.8776C311.001 69.6697 311.851 66.4449 311.018 63.4359C310.184 60.4268 307.796 58.0987 304.767 57.3414L264.686 47.3212L254.666 7.24019ZM219.561 92.4469L210.731 57.1264L241.563 26.2941L249.132 56.5699C249.908 59.675 252.333 62.0995 255.438 62.8758L285.713 70.4447L254.881 101.277L219.561 92.4469Z" fill="url(#paint2_linear_968_4735)"></path><defs><linearGradient id="paint0_linear_968_4735" x1="302.204" y1="156.176" x2="9.34961" y2="156.176" gradientUnits="userSpaceOnUse"><stop stop-color="#FF5F00"></stop><stop offset="1" stop-color="#FF9F66"></stop></linearGradient><linearGradient id="paint1_linear_968_4735" x1="218.962" y1="158.409" x2="88.1797" y2="158.409" gradientUnits="userSpaceOnUse"><stop stop-color="#FF5F00"></stop><stop offset="1" stop-color="#FF9F66"></stop></linearGradient><linearGradient id="paint2_linear_968_4735" x1="311.332" y1="82.6712" x2="147.334" y2="82.6712" gradientUnits="userSpaceOnUse"><stop stop-color="#FF5F00"></stop><stop offset="1" stop-color="#FF9F66"></stop></linearGradient></defs></svg>